<mxfile host="Electron" modified="2024-01-31T08:41:51.380Z" agent="Mozilla/5.0 (Windows NT 10.0; Win64; x64) AppleWebKit/537.36 (KHTML, like Gecko) draw.io/22.1.21 Chrome/120.0.6099.109 Electron/28.1.0 Safari/537.36" etag="rsDojGQU_R7KnCoqkigk" version="22.1.21" type="device">
  <diagram name="PÃ¡gina-1" id="19cG-CRSvdnWUny7E6hS">
    <mxGraphModel dx="472" dy="875" grid="1" gridSize="10" guides="1" tooltips="1" connect="1" arrows="1" fold="1" page="1" pageScale="1" pageWidth="827" pageHeight="1169" math="0" shadow="0">
      <root>
        <mxCell id="0" />
        <mxCell id="1" parent="0" />
        <mxCell id="G-FtZin0aGQIWugHMEwb-12" style="rounded=0;orthogonalLoop=1;jettySize=auto;html=1;" edge="1" parent="1" source="G-FtZin0aGQIWugHMEwb-1" target="G-FtZin0aGQIWugHMEwb-5">
          <mxGeometry relative="1" as="geometry" />
        </mxCell>
        <mxCell id="G-FtZin0aGQIWugHMEwb-1" value="Cliente" style="shape=umlActor;verticalLabelPosition=bottom;verticalAlign=top;html=1;outlineConnect=0;" vertex="1" parent="1">
          <mxGeometry x="170" y="200" width="30" height="60" as="geometry" />
        </mxCell>
        <mxCell id="G-FtZin0aGQIWugHMEwb-15" style="rounded=0;orthogonalLoop=1;jettySize=auto;html=1;entryX=0;entryY=0.5;entryDx=0;entryDy=0;" edge="1" parent="1" source="G-FtZin0aGQIWugHMEwb-2" target="G-FtZin0aGQIWugHMEwb-9">
          <mxGeometry relative="1" as="geometry" />
        </mxCell>
        <mxCell id="G-FtZin0aGQIWugHMEwb-2" value="Administrativo" style="shape=umlActor;verticalLabelPosition=bottom;verticalAlign=top;html=1;outlineConnect=0;" vertex="1" parent="1">
          <mxGeometry x="170" y="330" width="30" height="60" as="geometry" />
        </mxCell>
        <mxCell id="G-FtZin0aGQIWugHMEwb-5" value="Buscar productos" style="ellipse;whiteSpace=wrap;html=1;" vertex="1" parent="1">
          <mxGeometry x="460" y="200" width="120" height="80" as="geometry" />
        </mxCell>
        <mxCell id="G-FtZin0aGQIWugHMEwb-7" value="Dado de alta&amp;nbsp;" style="ellipse;whiteSpace=wrap;html=1;" vertex="1" parent="1">
          <mxGeometry x="460" y="60" width="120" height="80" as="geometry" />
        </mxCell>
        <mxCell id="G-FtZin0aGQIWugHMEwb-8" value="Realizar compra&amp;nbsp;" style="ellipse;whiteSpace=wrap;html=1;" vertex="1" parent="1">
          <mxGeometry x="460" y="360" width="120" height="80" as="geometry" />
        </mxCell>
        <mxCell id="G-FtZin0aGQIWugHMEwb-9" value="Insertar productos&amp;nbsp;" style="ellipse;whiteSpace=wrap;html=1;" vertex="1" parent="1">
          <mxGeometry x="460" y="480" width="120" height="80" as="geometry" />
        </mxCell>
        <mxCell id="G-FtZin0aGQIWugHMEwb-14" style="rounded=0;orthogonalLoop=1;jettySize=auto;html=1;entryX=-0.025;entryY=0.4;entryDx=0;entryDy=0;entryPerimeter=0;" edge="1" parent="1" source="G-FtZin0aGQIWugHMEwb-1" target="G-FtZin0aGQIWugHMEwb-8">
          <mxGeometry relative="1" as="geometry" />
        </mxCell>
        <mxCell id="G-FtZin0aGQIWugHMEwb-19" style="edgeStyle=orthogonalEdgeStyle;rounded=0;orthogonalLoop=1;jettySize=auto;html=1;entryX=0;entryY=0.5;entryDx=0;entryDy=0;" edge="1" parent="1" source="G-FtZin0aGQIWugHMEwb-17" target="G-FtZin0aGQIWugHMEwb-7">
          <mxGeometry relative="1" as="geometry" />
        </mxCell>
        <mxCell id="G-FtZin0aGQIWugHMEwb-17" value="Usuario" style="shape=umlActor;verticalLabelPosition=bottom;verticalAlign=top;html=1;outlineConnect=0;" vertex="1" parent="1">
          <mxGeometry x="170" y="70" width="30" height="60" as="geometry" />
        </mxCell>
      </root>
    </mxGraphModel>
  </diagram>
</mxfile>
